# xmcd CD database file
#
# Track frame offsets:
#	150
#	13295
#	22850
#	33662
#	44387
#	56400
#	67170
#	80337
#	91920
#	102885
#	116770
#	127725
#	140080
#	149567
#	159600
#	170605
#	179912
#	192687
#	204145
#	214687
#	227670
#	239637
#	252745
#	265612
#
# Disc length: 3755 seconds
#
# Revision: 0
# Processed by: cddbd v1.5.2PL0 Copyright (c) Steve Scherf et al.
# Submitted via: CDex 1.70beta2
#
DISCID=690ea918
DTITLE=Various Artist - Swamp Rock Bottom: Wild Bayou Classics
DYEAR=1900
DGENRE=Blues
TTITLE0=Slim Harpo-Tip On In (Part 1)
TTITLE1=Whispering Smith-Hound Dog Twist
TTITLE2=Guitar Gable and The Musical Kings-Congo Mombo
TTITLE3=Silas Hogan-Lonesome La La
TTITLE4=Blues Rockers-Calling All Cows
TTITLE5=The Gladiolas-Little Darlin'
TTITLE6=The Marigolds-Rollin' Stone
TTITLE7=Tabby Thomas-Hoodoo Party
TTITLE8=Lonesome Sundown-I'm A Mojo Man
TTITLE9=Lazy Lester-You Got Me Where You Want Me
TTITLE10=Jimmy Anderson-Going Through The Park
TTITLE11=Lightnin' Slim-Lightnin's Troubles
TTITLE12=Little Al-Little Lean Woman
TTITLE13=Jay Nelson and The Jumpers-Sleepy Time Rock
TTITLE14=Al Ferrier-Hey Baby
TTITLE15=Charles Sheffield-I Would Be A Sinner
TTITLE16=Guitar Gable-This Should Go On Forever
TTITLE17=Bobby Jay-Red Sails In The Sunset
TTITLE18=Jay Nelson and The Jumpers-Wild Love
TTITLE19=Warren Storm-Prisoner's Song
TTITLE20=Ray Batts-Staelin' Sugar
TTITLE21=Jack Toombs-Two Cheaters In Love
TTITLE22=Jack Toombs-You're The Only Good Thing
TTITLE23=Slim Harpo-I've Been A Good Thing For You
EXTD=
EXTT0=
EXTT1=
EXTT2=
EXTT3=
EXTT4=
EXTT5=
EXTT6=
EXTT7=
EXTT8=
EXTT9=
EXTT10=
EXTT11=
EXTT12=
EXTT13=
EXTT14=
EXTT15=
EXTT16=
EXTT17=
EXTT18=
EXTT19=
EXTT20=
EXTT21=
EXTT22=
EXTT23=
PLAYORDER=
